<?xml version="1.0" encoding="UTF-8" standalone="no"?>
<!-- Created with Inkscape (http://www.inkscape.org/) -->

<svg
   width="1439.3334mm"
   height="1557.8667mm"
   viewBox="0 0 1439.3334 1557.8667"
   version="1.1"
   id="svg1"
   xml:space="preserve"
   xmlns:inkscape="http://www.inkscape.org/namespaces/inkscape"
   xmlns:sodipodi="http://sodipodi.sourceforge.net/DTD/sodipodi-0.dtd"
   xmlns="http://www.w3.org/2000/svg"
   xmlns:svg="http://www.w3.org/2000/svg"><sodipodi:namedview
     id="namedview1"
     pagecolor="#ffffff"
     bordercolor="#000000"
     borderopacity="0.25"
     inkscape:showpageshadow="2"
     inkscape:pageopacity="0.0"
     inkscape:pagecheckerboard="0"
     inkscape:deskcolor="#d1d1d1"
     inkscape:document-units="mm" /><defs
     id="defs1" /><g
     inkscape:label="图层 1"
     inkscape:groupmode="layer"
     id="layer1"
     transform="translate(558.58198,631.69182)"><path
       style="fill:#000000"
       d="m 213.7369,922.96736 c 1.4e-4,-3.40773 -3.94758,-379.3775 -4.03279,-384.07195 l -0.0683,-3.76591 -76.04866,-42.20245 c -41.826764,-23.21134 -76.070212,-42.17403 -76.096551,-42.1393 -0.02634,0.0347 -44.016338,68.34549 -97.755552,151.80169 -53.739214,83.4562 -97.845067,151.93971 -98.012997,152.18558 -0.2702,0.39559 -2.4351,-0.92427 -18.81246,-11.46922 -10.17892,-6.55393 -18.54088,-11.94823 -18.58214,-11.98732 -0.0413,-0.0391 43.69076,-68.02562 97.182247,-151.08118 53.491489,-83.05557 97.221182,-151.03851 97.177097,-151.0732 -0.890666,-0.70093 -122.863464,-68.08747 -122.985214,-67.94586 -0.0962,0.11192 -17.83269,23.00396 -39.41438,50.8712 -21.58169,27.86724 -39.50759,50.95086 -39.83535,51.29693 l -0.59591,0.62923 -5.35437,-4.15726 c -2.94491,-2.2865 -5.48679,-4.20386 -5.64862,-4.26081 -0.16183,-0.057 -0.83002,0.63568 -1.48486,1.53918 -2.93861,4.05447 -7.47761,9.48693 -7.81763,9.35645 -0.19711,-0.0756 -7.86709,-6.46212 -17.04439,-14.19218 -10.69675,-9.00989 -16.61825,-14.16675 -16.49723,-14.36695 0.10382,-0.17177 0.92227,-1.20527 1.81877,-2.29667 8.87048,-10.79896 17.02503,-23.88334 33.06157,-53.04896 8.74789,-15.90977 11.97276,-21.62152 16.20823,-28.7073 5.5028,-9.20599 12.14443,-19.34401 16.77054,-25.59916 0.99581,-1.34646 1.81056,-2.54851 1.81056,-2.67121 0,-0.23005 -91.03774,-50.84083 -91.44834,-50.83905 -0.12639,5.4e-4 -14.92154,36.61226 -32.87813,81.35937 -17.95659,44.74712 -32.75864,81.35839 -32.89345,81.35839 -0.34583,0 -40.51054,-16.14502 -40.76555,-16.38654 -0.11517,-0.10908 14.90868,-37.87072 33.38634,-83.91475 18.47766,-46.04403 33.63331,-83.86683 33.67921,-84.05065 0.0511,-0.20445 -50.10641,-28.18824 -129.16551,-72.06388 -71.08693,-39.4513 -129.27936,-71.75599 -129.31651,-71.78819 -0.14035,-0.12162 21.38888,-38.638601 21.57174,-38.593022 0.10541,0.02627 57.16028,31.668062 126.7886,70.315082 69.62833,38.64702 126.69801,70.23362 126.82152,70.19246 0.19617,-0.0654 119.24716,-296.35836 119.24716,-296.78121 0,-0.08944 -77.53945,-24.25378 -172.3099,-53.69852 -94.77045,-29.44474 -172.34466,-53.56537 -172.38715,-53.60139 -0.0425,-0.036 2.88029,-9.57558 6.49506,-21.19901 5.07863,-16.33054 6.66254,-21.11863 6.96936,-21.06799 0.21837,0.036 62.2898,19.2984 137.9365,42.80524 75.6467,23.50685 137.5831,42.69608 137.63645,42.64273 0.0533,-0.0533 -0.82098,-1.27774 -1.94295,-2.72087 -1.12197,-1.44313 -4.03643,-5.32596 -6.47658,-8.62849 -39.19503,-53.04721 -69.90438,-113.27722 -98.25025,-192.69748 -5.07363,-14.21543 -17.61119,-52.37991 -17.28614,-52.61919 0.0527,-0.0388 4.73614,-1.49081 10.40766,-3.22671 5.67152,-1.7359 10.69545,-3.4161 11.1643,-3.73379 0.76935,-0.52129 15.49398,-12.07247 16.52288,-12.96187 0.38247,-0.33061 1.10117,0.47152 6.72947,7.51071 52.28109,65.38673 107.75847,125.49627 180.82879,195.92733 3.56526,3.43649 6.55226,6.16827 6.63778,6.07063 0.0855,-0.0976 34.360508,-85.42627 76.166636,-189.61919 41.806128,-104.19292 76.145221,-189.70184 76.309095,-190.01983 0.29275,-0.56806 0.656071,-0.43446 20.803163,7.65003 11.277865,4.52551 20.530322,8.24376 20.561015,8.26279 0.03069,0.019 -34.278476,85.57573 -76.2425999,190.12601 -41.9641241,104.55028 -76.2640521,190.12645 -76.2220641,190.16926 0.103645,0.10568 4.473762,-2.65456 9.136979,-5.77107 4.619309,-3.08717 7.136075,-5.38663 10.540588,-9.63045 5.851179,-7.29367 10.372554,-14.70639 21.073864,-34.55028 9.679204,-17.94855 10.869966,-19.93535 19.6632772,-32.80833 28.4658478,-41.67263 43.8017948,-62.23787 60.0795508,-80.56563 4.360482,-4.90964 15.631903,-16.10886 20.14064,-20.01162 30.984406,-26.82014 63.259766,-39.32818 116.953126,-45.32418 3.27823,-0.36608 6.98938,-0.7447 8.24699,-0.84137 1.25761,-0.0967 2.43693,-0.26869 2.6207,-0.38227 0.26894,-0.16621 0.24535,-8.40665 -0.12087,-42.22978 -0.42047,-38.8341 -0.50101,-50.13395 -0.35814,-50.24698 0.0303,-0.024 10.02656,-0.12888 22.21393,-0.23313 l 22.15885,-0.18956 0.002,6.04299 c 9.5e-4,3.32364 0.18049,22.08382 0.39897,41.6893 0.21848,19.60547 0.38219,35.73844 0.36381,35.85104 -0.0184,0.1126 -0.0193,1.67499 -0.002,3.47197 l 0.0313,3.26725 2.97657,-0.16326 c 6.78735,-0.37226 30.46182,-1.02742 53.1151,-1.46988 7.3488,-0.14353 16.58053,-0.33566 20.51496,-0.42694 l 7.15349,-0.16597 1.79249,-7.81601 c 3.01234,-13.13509 5.17743,-20.00246 8.48699,-26.91952 3.46334,-7.23845 7.67923,-12.88739 12.80189,-17.15343 9.09551,-7.57455 19.19366,-10.63389 40.00227,-12.11911 5.91088,-0.4219 28.32559,-0.42271 37.17396,-10e-4 21.82275,1.03919 49.47866,3.2634 70.7804,5.69247 l 3.03325,0.34589 0.8563,-0.94994 c 0.47097,-0.52246 0.85907,-1.02609 0.86245,-1.11916 0.003,-0.0931 0.4201,-0.62885 0.92604,-1.19062 0.50595,-0.56177 0.92267,-1.09756 0.92604,-1.19063 0.003,-0.0931 0.4201,-0.62885 0.92605,-1.19062 0.50594,-0.56177 0.92266,-1.1022 0.92604,-1.20094 0.003,-0.0987 0.16266,-0.33688 0.35396,-0.52917 0.19131,-0.1923 1.26059,-1.54025 2.37618,-2.99546 1.11559,-1.45521 2.35805,-3.04905 2.76102,-3.54188 0.40298,-0.49282 0.84423,-1.08813 0.98056,-1.32291 0.13634,-0.23479 0.58227,-0.78407 0.99097,-1.22063 0.40869,-0.43656 0.74363,-0.87454 0.74431,-0.97329 6.7e-4,-0.0987 0.16116,-0.33948 0.35664,-0.53496 0.19549,-0.19548 1.6818,-2.07922 3.30293,-4.18609 1.62113,-2.10686 3.27689,-4.23388 3.67947,-4.7267 0.40259,-0.49282 0.84352,-1.08814 0.97985,-1.32292 0.13633,-0.23478 0.58227,-0.78406 0.99096,-1.22062 0.4087,-0.43657 0.74364,-0.87455 0.74431,-0.97329 6.8e-4,-0.0987 0.16117,-0.33948 0.35665,-0.53496 0.19549,-0.19549 1.6818,-2.07923 3.30293,-4.18609 1.62112,-2.10687 3.27689,-4.23388 3.67947,-4.7267 0.40258,-0.49283 0.84351,-1.08814 0.97985,-1.32292 0.13633,-0.23478 0.58226,-0.78406 0.99096,-1.22063 0.4087,-0.43656 0.74364,-0.87454 0.74431,-0.97329 6.7e-4,-0.0987 0.15736,-0.33687 0.34819,-0.52916 0.19083,-0.1923 1.26352,-1.54025 2.38375,-2.99546 1.12024,-1.45521 2.36309,-3.04906 2.76189,-3.54188 0.39881,-0.49282 0.83665,-1.08813 0.97298,-1.32291 0.13633,-0.23479 0.58227,-0.78407 0.99096,-1.22063 0.4087,-0.43656 0.74364,-0.87454 0.74431,-0.97329 6.8e-4,-0.0987 0.15797,-0.33687 0.34955,-0.52917 0.19157,-0.19229 1.68083,-2.07603 3.30946,-4.18608 1.62863,-2.11005 3.28759,-4.23968 3.68657,-4.7325 0.39899,-0.49282 0.83698,-1.08814 0.97332,-1.32292 0.13633,-0.23478 0.58226,-0.78406 0.99096,-1.22062 0.4087,-0.43657 0.74364,-0.87455 0.74431,-0.97329 6.7e-4,-0.0987 0.15797,-0.33687 0.34955,-0.52917 0.19157,-0.19229 1.68083,-2.07603 3.30946,-4.18609 1.62862,-2.11005 3.28758,-4.23967 3.68657,-4.7325 0.39899,-0.49282 0.83698,-1.08813 0.97331,-1.32291 0.13634,-0.23478 0.58227,-0.78406 0.99097,-1.22063 0.40869,-0.43656 0.74363,-0.87454 0.74431,-0.97329 6.7e-4,-0.0987 0.15797,-0.33687 0.34954,-0.52916 0.19158,-0.1923 1.68084,-2.07604 3.30946,-4.18609 1.62863,-2.11005 3.28759,-4.23968 3.68658,-4.7325 0.39899,-0.49282 0.83698,-1.08813 0.97331,-1.32292 0.13633,-0.23478 0.58227,-0.78406 0.99096,-1.22062 0.4087,-0.43656 0.74364,-0.87454 0.74431,-0.97329 6.8e-4,-0.0987 0.15736,-0.33687 0.3482,-0.52917 0.19083,-0.19229 1.26184,-1.54025 2.38002,-2.99546 1.11818,-1.45521 2.193,-2.82442 2.38848,-3.04271 0.19549,-0.21828 0.64252,-0.80991 0.99342,-1.31475 0.35089,-0.50483 0.96485,-1.27873 1.36436,-1.71979 0.39951,-0.44105 0.72693,-0.88271 0.72761,-0.98145 6.7e-4,-0.0987 0.15797,-0.33687 0.34954,-0.52917 0.19158,-0.1923 1.68084,-2.07603 3.30946,-4.18609 1.62863,-2.11005 3.28759,-4.23967 3.68658,-4.7325 0.39899,-0.49282 0.83698,-1.08813 0.97331,-1.32291 0.13633,-0.23478 0.58227,-0.78407 0.99097,-1.22063 0.40869,-0.43656 0.74363,-0.87454 0.7443,-0.97329 6.8e-4,-0.0987 0.15797,-0.33687 0.34955,-0.52916 0.19158,-0.1923 1.68083,-2.07604 3.30946,-4.18609 1.62863,-2.11005 3.28759,-4.23968 3.68658,-4.7325 0.39899,-0.49282 0.83698,-1.08814 0.97331,-1.32292 0.13633,-0.23478 0.58227,-0.78406 0.99096,-1.22062 0.4087,-0.43656 0.74364,-0.87454 0.74431,-0.97329 6.7e-4,-0.0987 0.15736,-0.33687 0.34819,-0.52917 0.19084,-0.19229 1.26621,-1.54025 2.38972,-2.99546 1.12351,-1.45521 2.34759,-3.00302 2.72016,-3.43958 0.37258,-0.43656 0.80161,-1.05509 0.95341,-1.37451 0.1518,-0.31942 0.40871,-0.62917 0.5709,-0.68834 0.35803,-0.13062 34.92865,26.64688 35.01939,27.1251 0.0352,0.18576 -0.32194,0.77068 -0.79375,1.29982 -0.47181,0.52913 -1.03643,1.23073 -1.25471,1.5591 -0.21828,0.32837 -0.635,0.86719 -0.92604,1.19737 -0.29104,0.33018 -0.70776,0.86596 -0.92604,1.19062 -0.21828,0.32466 -0.635,0.86045 -0.92604,1.19063 -0.29105,0.33018 -0.70777,0.86553 -0.92605,1.18968 -0.4573,0.67908 -1.56265,2.07377 -2.04884,2.58516 -0.18282,0.19229 -0.33517,0.43042 -0.33855,0.52916 -0.003,0.0987 -0.42009,0.63917 -0.92604,1.20094 -0.50594,0.56178 -0.91999,1.09756 -0.92011,1.19063 -1.1e-4,0.0931 -0.38706,0.60693 -0.85989,1.14191 -0.47283,0.53497 -1.03829,1.23657 -1.25657,1.5591 -0.21828,0.32253 -0.635,0.85657 -0.92604,1.18675 -0.29104,0.33018 -0.70776,0.86554 -0.92604,1.18968 -0.4573,0.67908 -1.56265,2.07378 -2.04884,2.58516 -0.18283,0.1923 -0.33517,0.43042 -0.33855,0.52917 -0.003,0.0987 -0.42009,0.63917 -0.92604,1.20094 -0.50595,0.56177 -0.92267,1.09755 -0.92604,1.19062 -0.003,0.0931 -0.39033,0.60216 -0.8599,1.13129 -0.46956,0.52914 -1.03235,1.23074 -1.25063,1.55911 -0.21828,0.32837 -0.635,0.86718 -0.92604,1.19736 -0.29104,0.33018 -0.70776,0.86596 -0.92604,1.19063 -0.21828,0.32466 -0.635,0.86044 -0.92605,1.19062 -0.29104,0.33018 -0.70776,0.86554 -0.92604,1.18968 -0.4573,0.67909 -1.56265,2.07378 -2.04884,2.58516 -0.18282,0.1923 -0.33517,0.43042 -0.33855,0.52917 -0.003,0.0987 -0.42009,0.63917 -0.92604,1.20094 -0.50594,0.56177 -0.92266,1.09755 -0.92604,1.19063 -0.003,0.0931 -0.39033,0.60215 -0.8599,1.13129 -0.46956,0.52913 -1.03235,1.23073 -1.25063,1.5591 -0.21828,0.32837 -0.635,0.86719 -0.92604,1.19737 -0.29104,0.33018 -0.70776,0.86596 -0.92604,1.19062 -0.21828,0.32466 -0.635,0.86045 -0.92604,1.19063 -0.29104,0.33018 -0.70776,0.86553 -0.92604,1.18968 -0.4573,0.67908 -1.56265,2.07377 -2.04885,2.58516 -0.18282,0.19229 -0.33517,0.43042 -0.33854,0.52916 -0.003,0.0987 -0.4201,0.63917 -0.92604,1.20095 -0.50595,0.56177 -0.92267,1.09755 -0.92605,1.19062 -0.003,0.0931 -0.39033,0.60215 -0.85989,1.13129 -0.46957,0.52914 -1.03235,1.23073 -1.25063,1.5591 -0.21829,0.32838 -0.635,0.86719 -0.92605,1.19737 -0.29104,0.33018 -0.70776,0.86596 -0.92604,1.19063 -0.21828,0.32466 -0.635,0.86044 -0.92604,1.19062 -0.29104,0.33018 -0.70776,0.86554 -0.92604,1.18968 -0.4573,0.67908 -1.56265,2.07378 -2.04885,2.58516 -0.18282,0.1923 -0.33516,0.43042 -0.33854,0.52917 -0.003,0.0987 -0.4201,0.63917 -0.92604,1.20094 -0.50595,0.56177 -0.92267,1.09755 -0.92604,1.19062 -0.003,0.0931 -0.39033,0.60216 -0.8599,1.13129 -0.46957,0.52914 -1.03235,1.23074 -1.25063,1.55911 -0.21828,0.32837 -0.635,0.86718 -0.92604,1.19736 -0.29104,0.33018 -0.70776,0.86554 -0.92604,1.18968 -0.4573,0.67909 -1.56266,2.07378 -2.04885,2.58516 -0.18282,0.1923 -0.33517,0.43043 -0.33854,0.52917 -0.003,0.0987 -0.4201,0.63917 -0.92605,1.20094 -0.50594,0.56177 -0.92266,1.09756 -0.92604,1.19063 -0.003,0.0931 -0.39033,0.60362 -0.85989,1.13456 -0.46957,0.53094 -1.08446,1.28262 -1.36643,1.6704 -0.28196,0.38779 -0.69868,0.92455 -0.92604,1.1928 -0.22735,0.26825 -0.59197,0.75395 -0.81025,1.07932 -0.21828,0.32538 -0.635,0.86175 -0.92604,1.19193 -0.29104,0.33018 -0.70776,0.86553 -0.92604,1.18968 -0.4573,0.67908 -1.56265,2.07377 -2.04885,2.58516 -0.18282,0.19229 -0.33516,0.43042 -0.33854,0.52917 -0.003,0.0987 -0.4201,0.63916 -0.92604,1.20094 -0.50595,0.56177 -0.92267,1.09755 -0.92604,1.19062 -0.003,0.0931 -0.39033,0.60363 -0.8599,1.13456 -0.46957,0.53094 -1.08446,1.28262 -1.36642,1.67041 -0.28197,0.38778 -0.69869,0.92454 -0.92605,1.19279 -0.22735,0.26825 -0.59196,0.75395 -0.81024,1.07933 -0.21829,0.32538 -0.635,0.86174 -0.92605,1.19192 -0.29104,0.33018 -0.70776,0.86554 -0.92604,1.18968 -0.4573,0.67908 -1.56265,2.07378 -2.04884,2.58516 -0.18283,0.1923 -0.33517,0.43042 -0.33855,0.52917 -0.003,0.0987 -0.42009,0.63917 -0.92604,1.20094 -0.50595,0.56177 -0.92266,1.09755 -0.92604,1.19062 -0.003,0.0931 -0.39033,0.60363 -0.8599,1.13457 -0.46956,0.53093 -1.08445,1.28262 -1.36642,1.6704 -0.28197,0.38779 -0.69869,0.92454 -0.92604,1.1928 -0.22736,0.26825 -0.59197,0.75352 -0.81025,1.07838 -0.45562,0.67808 -1.56019,2.07248 -2.04885,2.58646 -0.18282,0.19229 -0.33516,0.43042 -0.33854,0.52916 -0.003,0.0987 -0.4201,0.63917 -0.92604,1.20094 -0.50595,0.56177 -0.92267,1.09756 -0.92604,1.19063 -0.003,0.0931 -0.4201,0.62885 -0.92605,1.19062 -0.50594,0.56177 -0.92266,1.09756 -0.92604,1.19063 -0.003,0.0931 -0.39033,0.60362 -0.85989,1.13456 -0.46957,0.53094 -1.08446,1.28262 -1.36643,1.67041 -0.48013,0.66031 -1.0652,1.39588 -1.75808,2.2103 -0.16289,0.19148 -0.25389,0.39042 -0.20221,0.4421 0.0517,0.0517 4.3797,0.70424 9.61783,1.45014 52.46931,7.47149 101.00664,16.49345 115.31266,21.43394 13.96365,4.82225 25.32489,16.03167 34.50928,34.04813 7.81292,15.32613 11.45508,29.82803 11.88373,47.31714 0.4215,17.1977 -2.59741,35.30928 -9.56712,57.39687 -3.46552,10.98251 -6.83003,20.00785 -17.07001,45.79064 -12.02568,30.2789 -15.20354,39.31301 -18.63381,52.97259 -2.43564,9.6989 -3.3387,14.0014 -8.61997,41.069 -3.90766,20.02752 -6.60656,30.4824 -11.03527,42.74799 -4.98628,13.80983 -12.49875,28.4399 -20.92278,40.74584 -1.09578,1.600725 -1.99109,3.029475 -1.98958,3.174996 0.002,0.225886 2.41906,4.36411 2.55,4.366455 0.19445,0.0035 23.25748,8.437748 23.3641,8.544366 0.0756,0.07559 -0.58478,2.350798 -1.4675,5.056017 -0.88272,2.705219 -2.27093,7.35624 -3.08491,10.335601 l -1.47998,5.417021 4.22484,7.746521 c 5.44952,9.992067 9.2535,17.173828 19.23849,36.321521 8.90558,17.0777761 13.66811,26.098587 17.53065,33.205209 3.54035,6.513826 8.53324,15.436123 8.78552,15.699727 0.77235,0.807023 20.04185,-26.8876253 31.54204,-45.333061 6.35266,-10.189188 10.48228,-17.241938 25.4073,-43.391668 12.28982,-21.532677 26.66473,-46.354915 32.53485,-56.180375 2.61506,-4.37711 3.88692,-6.25692 9.29888,-13.7438 3.95377,-5.46962 5.93884,-8.60748 6.75467,-10.67728 0.65922,-1.67248 0.60313,-2.14942 -1.24054,-10.54751 -1.26241,-5.75043 -2.08058,-10.38449 -1.86248,-10.54906 0.11902,-0.0898 43.04306,-4.68349 43.65899,-4.67233 0.29168,0.005 0.49,0.33257 0.60601,1.00004 0.0948,0.5457 0.69946,3.37344 1.34362,6.28385 1.52336,6.88284 1.98566,9.82697 2.20197,14.02292 0.34083,6.61124 -0.29639,11.66836 -2.20009,17.46039 -2.4449,7.43866 -6.05837,13.83961 -13.89193,24.60836 -1.69371,2.32834 -3.67685,5.126305 -4.40697,6.217711 -2.50326,3.741963 -16.55955,27.890944 -33.11103,56.885418 C 781.03576,-1.8379099 775.58341,7.1857172 762.8921,26.062347 750.12299,45.054698 741.53003,56.554544 732.76481,66.3813 l -2.56925,2.88041 0.63393,1.08834 c 9.35853,16.066917 15.96915,27.665382 19.57323,34.34162 0.68201,1.26337 3.26495,6.62118 5.73985,11.90625 4.97439,10.62261 6.77414,14.01792 9.72173,18.34047 3.13177,4.59265 6.11707,8.08976 11.41247,13.36908 5.4326,5.4161 13.09435,12.08614 19.73401,17.17971 1.23603,0.94821 3.9988,1.84482 42.06875,13.65267 22.41021,6.95079 40.7967,12.67921 40.85888,12.72983 0.0974,0.0793 -12.87046,42.16849 -13.04661,42.34464 -0.0504,0.0504 -32.3334,-9.88584 -33.68433,-10.36755 -0.17421,-0.0621 -0.74261,0.6506 -1.26776,1.58965 -2.90217,5.18957 -8.95497,10.69126 -14.8288,13.47863 -3.90195,1.85164 -9.51847,3.31188 -12.73842,3.31188 h -1.14401 v -13.84287 -13.84288 l -5.6624,-1.76754 c -3.11433,-0.97215 -5.7508,-1.76754 -5.85883,-1.76754 -0.10803,0 -0.12118,0.80954 -0.0292,1.79898 0.24897,2.67884 1.4431,6.02897 2.87177,8.05675 0.28195,0.40018 0.45483,0.7276 0.38418,0.7276 -0.0707,0 -1.23962,-1.02897 -2.59771,-2.28662 -2.81743,-2.60905 -13.37859,-11.48568 -14.77237,-12.41614 -0.57511,-0.38393 -24.48887,-7.93442 -63.10313,-19.92405 -34.19739,-10.61821 -62.50563,-19.38809 -62.9072,-19.48862 -0.66965,-0.16764 -0.96667,0.0662 -3.58641,2.8231 -7.25905,7.63919 -11.06575,11.92472 -13.59752,15.30788 l -1.37755,1.8408 -0.0457,2.71818 c -0.092,5.47426 -1.63277,9.5167 -5.97725,15.68277 -4.4479,6.31284 -24.68411,33.12202 -30.25664,40.08437 -4.09094,5.11124 -8.21742,9.69046 -13.35177,14.81667 -8.03827,8.02553 -14.95736,13.9363 -30.56273,26.10882 -11.5354,8.99787 -14.02549,11.05054 -13.9874,11.53034 0.0182,0.22979 3.94084,6.58897 8.71689,14.13151 22.75991,35.9434 34.79049,53.96934 50.12992,75.11186 4.31355,5.94542 9.36805,12.69844 33.45688,44.69976 5.36746,7.13052 10.03388,13.33232 10.36981,13.78178 l 0.61079,0.81719 -9.72227,6.03154 c -5.34724,3.31736 -9.89069,6.18816 -10.09654,6.37956 -0.31629,0.2941 6.38616,7.10725 43.25937,43.97384 42.23476,42.22717 53.54094,53.38966 77.37237,76.38901 20.58018,19.86163 30.38867,29.5268 42.28975,41.67188 6.48817,6.6212 13.11009,13.27081 14.71536,14.77693 3.72632,3.49614 6.77442,5.51496 21.04264,13.93704 6.33016,3.73649 11.61281,6.89098 11.73923,7.00999 0.12642,0.11901 -4.85664,8.78827 -11.07346,19.26503 l -11.30331,19.04866 -1.36196,-0.80222 c -22.83345,-13.44917 -26.98699,-16.00158 -31.49648,-19.35503 -5.08741,-3.78323 -8.48645,-7.01233 -25.56027,-24.28234 -9.09506,-9.19956 -21.71486,-21.73594 -28.04401,-27.85862 -21.08142,-20.39372 -28.32883,-27.43865 -41.25662,-40.10402 -21.66742,-21.2276 -52.46282,-51.9646 -81.84533,-81.69011 -27.5142,-27.8354 -28.06845,-28.37656 -29.06228,-28.37656 -0.55724,0 -2.3567,-0.18601 -3.99882,-0.41336 -12.30813,-1.70404 -24.6437,-6.58873 -36.85232,-14.59295 -10.20441,-6.69022 -17.36304,-12.58092 -34.79271,-28.63027 -13.64203,-12.56166 -18.82723,-16.94436 -24.78685,-20.95064 -5.30837,-3.56848 -9.57522,-5.5058 -13.45463,-6.10892 l -1.97519,-0.30707 v -22.20839 -22.20839 l 1.71973,0.10951 1.71973,0.1095 -0.83377,-0.86023 -0.83378,-0.86024 -0.71935,0.58312 c -0.39565,0.32071 -1.89566,1.57594 -3.33336,2.7894 -8.48489,7.16148 -14.89799,9.71219 -29.97223,11.921 l -5.13324,0.75217 -0.93007,1.15923 c -5.70317,7.10833 -14.36025,11.06412 -23.59616,10.78209 -2.09608,-0.064 -2.36578,-0.009 -3.96738,0.81313 -4.55702,2.33845 -9.78863,4.05252 -15.4795,5.07167 -4.4774,0.80183 -14.62583,0.96412 -24.64566,0.39414 -4.09625,-0.23302 -7.63836,-0.42367 -7.87135,-0.42367 -0.38507,0 -0.42361,-2.02497 -0.42361,-22.25661 v -22.2566 l 2.71197,0.1603 c 9.35803,0.55316 14.93218,0.7436 19.11615,0.65311 l 4.7625,-0.103 4.7625,-2.27666 c 2.61938,-1.25217 5.65547,-2.57941 6.74688,-2.94942 2.28112,-0.77337 5.65941,-1.50654 6.9418,-1.50654 0.7311,0 1.16628,-0.29065 2.59084,-1.73037 5.07467,-5.12868 11.42787,-7.73722 23.1434,-9.50235 9.13896,-1.37694 11.38925,-1.78078 11.90625,-2.13673 1.22464,-0.84314 1.78351,-1.38644 1.68858,-1.64154 -0.20321,-0.5461 -41.93199,-41.61614 -60.96072,-59.99839 -8.7687,-8.47079 -24.81679,-23.80335 -25.70408,-24.55801 -0.55573,-0.47266 -0.86483,-0.36191 -17.98732,6.44526 -24.64332,9.79712 -33.58961,13.23382 -45.07084,17.31384 -6.18086,2.19646 -22.69963,7.65116 -24.04561,7.94016 l -0.89457,0.19207 0.16633,8.1073 c 0.0915,4.45902 0.64698,56.92293 1.23444,116.58647 0.58747,59.66354 1.15331,109.46435 1.25742,110.66846 l 0.18928,2.18928 66.01354,36.63104 c 36.30745,20.14707 66.01355,36.78758 66.01355,36.97892 0,0.19133 -4.74774,8.89613 -10.55053,19.344 -8.20438,14.7719 -10.64609,18.96845 -10.98021,18.87165 -0.23632,-0.0684 -25.07562,-13.80834 -55.19843,-30.53308 l -54.76875,-30.40862 -0.074,4.38335 c -0.0407,2.41083 0.76848,84.49695 1.79822,182.41359 1.02974,97.91664 1.83696,178.06261 1.79383,178.10215 -0.0431,0.0395 -10.04991,0.15942 -22.23728,0.2664 l -22.15886,0.19452 z m -4.63248,-444.79823 c -0.0786,-3.23784 -0.56648,-48.57089 -1.08416,-100.74011 -0.51769,-52.16922 -0.97823,-94.97826 -1.02343,-95.1312 -0.055,-0.18622 -1.59921,-0.0829 -4.67475,0.31287 -10.58813,1.3624 -21.68912,1.83272 -33.52587,1.42041 l -3.79789,-0.13229 -41.6443,64.65115 c -22.90437,35.55814 -41.644305,64.72848 -41.644305,64.82299 0,0.21795 126.750745,70.62555 127.202675,70.65864 0.26488,0.0194 0.30505,-1.20712 0.19203,-5.86246 z M 81.104153,332.44985 c 20.942227,-32.5239 38.509577,-59.81138 39.038547,-60.63884 l 0.96176,-1.50447 -1.11039,-0.65327 c -1.8824,-1.10747 -7.55687,-5.4031 -11.03036,-8.35009 -6.45444,-5.4761 -15.622787,-14.83806 -23.934219,-24.43964 -1.734709,-2.00398 -3.242025,-3.61132 -3.349591,-3.57187 -0.107566,0.0394 -2.913065,2.40229 -6.234443,5.25077 -10.016488,8.59032 -16.463148,13.66402 -24.559702,19.32919 -20.897011,14.62166 -43.0417017,28.19672 -76.86146,47.11735 -28.254375,15.80704 -38.307199,21.16256 -42.92578,22.86821 -1.126209,0.41591 -2.044875,0.81574 -2.041478,0.8885 0.01216,0.26048 113.630254,63.16323 113.798484,63.00261 0.09452,-0.0902 17.306401,-26.77454 38.248632,-59.29845 z M 526.4108,362.01704 c -2.02836,-3.10449 -8.76149,-13.65975 -14.21937,-22.29114 -3.68068,-5.82084 -6.7804,-10.68206 -6.88827,-10.80271 -0.19527,-0.2184 -7.10423,4.28143 -7.1272,4.64198 -0.0115,0.17992 28.32488,29.02593 28.52722,29.04032 0.0531,0.004 -0.0785,-0.26103 -0.29238,-0.58845 z m -57.66786,-62.68385 c 4.29933,-2.4779 8.86443,-5.50397 11.78836,-7.81418 l 0.73647,-0.58188 -3.11249,-4.84207 C 466.3688,267.7589 458.46687,255.98271 437.71206,225.82277 429.4504,213.8173 417.58945,196.31511 411.35439,186.92902 c -6.23506,-9.3861 -11.49149,-17.28688 -11.68096,-17.5573 -0.31145,-0.44454 -0.82337,0.17697 -5.3394,6.48229 -7.15541,9.99045 -17.53797,25.74381 -21.71006,32.94047 l -0.4818,0.83108 3.28117,3.14594 c 13.80339,13.23446 18.8911,18.14146 30.52827,29.44391 13.89082,13.49128 43.81553,42.96618 53.71315,52.90577 3.20022,3.21379 5.91516,5.84326 6.03321,5.84326 0.11805,0 1.48828,-0.73406 3.04497,-1.63125 z m -612.35587,-15.80487 c 4.75106,-7.31243 11.56492,-11.64996 19.77154,-12.58604 l 1.48537,-0.16943 5.20837,-5.51611 c 2.8646,-3.03385 7.32245,-7.58936 9.90633,-10.12333 l 4.69796,-4.60723 1.40781,-3.28973 c 15.516024,-36.2573 36.056663,-78.04618 55.393355,-112.69493 6.664589,-11.94205 20.525315,-35.898987 25.946988,-44.84688 0.52904,-0.873125 0.962198,-1.681901 0.962572,-1.79728 0.0019,-0.596764 -13.135587,-20.209794 -20.860948,-31.143346 -17.400376,-24.626413 -37.088943,-49.3422231 -58.435469,-73.356276 -12.107658,-13.620672 -31.036328,-33.910411 -31.338368,-33.591759 -0.46176,0.487152 -113.7444,283.252631 -113.55296,283.440201 0.12025,0.11781 22.00707,12.30852 48.63738,27.09045 41.98117,23.30288 48.45393,26.81774 48.68333,26.43622 0.14552,-0.24201 1.08456,-1.70205 2.08674,-3.24453 z m 666.68538,-29.8238 c 17.59033,-13.77061 21.51544,-17.10137 29.0849,-24.68079 5.56509,-5.57242 7.95415,-8.30689 13.08586,-14.97783 1.84204,-2.39456 2.5061,-3.46142 2.5061,-4.02625 0,-1.18886 0.49942,-3.73085 1.10575,-5.62813 1.62326,-5.07938 7.10099,-13.59258 23.26704,-36.16039 5.84669,-8.16199 7.5982,-10.51845 9.96201,-13.4028 0.93325,-1.13877 1.643,-2.12429 1.57723,-2.19006 -0.0658,-0.0658 -34.07863,-10.66505 -75.58412,-23.55394 l -75.46454,-23.43435 -0.67301,0.62129 c -1.81638,1.67679 -22.82831,25.27179 -23.04322,25.87599 -0.12717,0.35752 10.52653,16.9487 20.14113,31.36613 6.5525,9.8257 11.44406,17.00206 28.27454,41.48138 13.99517,20.35545 24.90202,36.55195 33.14375,49.21794 2.40201,3.69144 4.05332,5.98357 4.25497,5.90619 0.18125,-0.0695 3.94397,-2.95602 8.36161,-6.41438 z M -10.176662,244.51361 C 2.7753835,236.69598 18.4441,226.50277 27.682852,219.88427 34.15651,215.24663 42.777276,208.19392 53.573456,198.70298 l 0.90291,-0.79375 -5.102597,-7.15648 c -2.806429,-3.93607 -6.233691,-8.78628 -7.616139,-10.77826 -1.382448,-1.99198 -2.573073,-3.61989 -2.645833,-3.61758 -0.07276,0.002 -0.636336,0.68534 -1.252391,1.51784 -0.616054,0.8325 -1.905788,2.52567 -2.866075,3.7626 -0.960287,1.23693 -2.123117,2.73901 -2.584068,3.33797 -0.46095,0.59895 -2.445435,3.15295 -4.409967,5.67555 -1.964531,2.5226 -3.81,4.90778 -4.101041,5.3004 -0.291042,0.39262 -2.325295,3.01783 -4.520561,5.83382 -2.195267,2.81598 -4.457455,5.7267 -5.027084,6.46827 -0.569629,0.74156 -2.831817,3.65859 -5.0270834,6.48229 -2.195267,2.8237 -4.4574545,5.74231 -5.0270835,6.48581 -2.455164,3.20457 -19.3380931,24.94427 -20.1653711,25.96641 -0.500558,0.61847 -0.840646,1.12448 -0.755753,1.12448 0.08489,0 2.986502,-1.70943 6.448019,-3.79874 z m 211.742632,-6.66886 c 2.40109,-0.36578 4.51445,-0.71631 4.69635,-0.77896 0.36217,-0.12474 0.39658,-4.73135 0.0957,-12.81 l -0.16183,-4.34511 -5.84868,9.10761 c -3.21677,5.00918 -5.94394,9.275 -6.06038,9.47959 -0.25166,0.44218 0.57658,0.36787 7.27885,-0.65313 z m -30.1511,-45.62407 c 14.29123,-22.19192 26.39418,-40.98937 26.89546,-41.77209 l 0.91141,-1.42314 -2.06903,1.13391 c -3.08961,1.69321 -17.58132,10.17261 -31.10663,18.20112 -6.58505,3.90884 -14.35407,8.5132 -17.26449,10.23191 -10.08644,5.95645 -16.89019,10.87071 -29.44178,21.26543 -2.3685,1.96149 -4.2735,3.65755 -4.23333,3.76901 0.15297,0.42451 8.22922,9.54716 12.03735,13.59698 3.79661,4.03758 9.30131,9.24405 12.57614,11.8948 2.41981,1.95868 5.30906,3.8706 5.51856,3.65184 0.10577,-0.11044 11.88512,-18.35784 26.17634,-40.54977 z m 93.78339,28.04761 c 13.23814,-4.79722 37.86719,-14.51209 37.52843,-14.803 -0.1222,-0.10493 -3.07968,-2.80515 -6.57218,-6.00047 -12.6195,-11.54573 -24.19739,-22.00402 -39.79702,-35.94856 l -6.19493,-5.53766 0.17595,17.18719 c 0.0968,9.45295 0.25436,24.58375 0.3502,33.62401 l 0.17425,16.43682 4.52182,-1.52037 c 2.487,-0.8362 6.90306,-2.38328 9.81348,-3.43796 z M -16.297126,175.25763 c 1.589021,-2.05364 3.246317,-4.18276 3.68288,-4.73137 0.436562,-0.54862 1.239212,-1.57705 1.783665,-2.28539 0.544454,-0.70834 2.4226491,-3.13336 4.1737672,-5.38894 1.7511182,-2.25557 3.627375,-4.68059 4.1694595,-5.38893 0.5420845,-0.70835 1.3427957,-1.73513 1.77935819,-2.28173 0.43656251,-0.54661 2.28203131,-2.92659 4.10104181,-5.28884 1.8190104,-2.36226 3.6644792,-4.74452 4.1010418,-5.29392 0.4365625,-0.5494 1.27,-1.61779 1.8520833,-2.3742 0.5820834,-0.75641 1.6709352,-2.15059 2.4196712,-3.09818 l 1.361338,-1.7229 -2.388016,-3.67981 c -1.313408,-2.0239 -2.4762636,-3.67982 -2.584123,-3.67982 -0.3338737,0 -12.5021912,21.31948 -19.692885,34.50288 -4.452188,8.16264 -7.805311,14.44504 -7.709789,14.44504 0.03376,0 1.361486,-1.68025 2.950507,-3.73389 z m 358.491286,-1.69007 c 7.5568,-11.91296 17.71275,-26.3231 27.82751,-39.48409 2.37447,-3.08958 4.31722,-5.67861 4.31722,-5.7534 0,-0.0748 -1.64663,-3.02384 -3.65918,-6.55342 -8.08795,-14.18456 -16.54553,-30.232066 -22.51583,-42.721782 l -3.28855,-6.879568 -9.94062,-3.084074 c -5.46734,-1.69624 -10.00014,-3.079971 -10.07291,-3.074956 -0.0728,0.005 -1.48072,1.309907 -3.1288,2.89976 -2.67907,2.584415 -15.66516,12.832446 -32.62381,25.745216 l -4.39948,3.349887 -6.41062,9.955407 c -3.52584,5.47547 -6.30857,10.04539 -6.18385,10.15539 19.56735,17.25659 54.68348,48.95147 64.87878,58.55784 1.07016,1.00835 2.03603,1.73264 2.14636,1.60953 0.11033,-0.1231 1.48453,-2.24789 3.05378,-4.72174 z M 92.392139,164.46708 c 9.182731,-7.64791 18.255571,-14.39607 26.373531,-19.616 1.60219,-1.03023 6.57044,-4.02594 11.04054,-6.65714 4.47011,-2.63119 12.7709,-7.54519 18.44621,-10.91998 16.51508,-9.8206 29.94853,-17.53913 38.70212,-22.23727 0.76772,-0.41205 1.36303,-0.84596 1.32291,-0.96426 -0.0401,-0.11829 -6.20466,-5.474442 -13.69898,-11.902553 -28.79052,-24.694508 -42.1087,-35.951572 -42.35446,-35.799686 -0.14036,0.08675 -0.75857,0.822276 -1.37381,1.634506 -0.61523,0.81223 -1.4758,1.933272 -1.91236,2.491205 -0.43656,0.557932 -1.68672,2.176674 -2.77812,3.597205 -1.09141,1.42053 -2.05223,2.642314 -2.13517,2.715074 -0.0829,0.07276 -0.67825,0.832957 -1.32292,1.689327 -1.19213,1.58361 -1.63575,2.161238 -3.60282,4.691138 -0.60927,0.783609 -1.8942,2.436775 -2.8554,3.673702 -0.96119,1.236927 -1.90117,2.435269 -2.08883,2.662981 -0.18766,0.227713 -0.86726,1.106972 -1.51022,1.95391 -1.32004,1.738822 -2.00664,2.628725 -3.60619,4.673991 -1.311,1.676315 -6.84969,8.830267 -8.27845,10.692716 -0.36381,0.47423 -1.945511,2.512002 -3.514902,4.528384 -1.569391,2.01638 -3.295797,4.2457 -3.836458,4.95404 -0.540661,0.70834 -1.340208,1.73526 -1.77677,2.28204 -1.564056,1.95892 -4.266853,5.42486 -6.173825,7.91702 -1.067269,1.39478 -2.436488,3.17709 -3.042708,3.9607 -0.60622,0.78361 -1.399874,1.81275 -1.763676,2.28698 -0.363802,0.47423 -1.945505,2.51201 -3.514897,4.52839 -1.569391,2.01638 -3.295797,4.24569 -3.836458,4.95404 -0.540661,0.70834 -1.340208,1.73582 -1.77677,2.28328 -2.495206,3.12907 -3.571875,4.57523 -3.571875,4.79768 0,0.85661 19.71775,28.9142 20.137454,28.65481 0.148023,-0.0915 2.08451,-1.67828 4.303304,-3.52623 z M 717.72866,139.37016 c -0.59044,-1.27331 -1.75948,-3.80338 -2.59788,-5.62239 -3.1791,-6.89741 -6.09103,-12.31771 -13.85068,-25.78179 l -3.1935,-5.54116 -2.36137,2.49845 c -8.29124,8.77257 -19.95533,23.4025 -18.95253,23.7716 1.13743,0.41864 41.44325,12.95052 41.71086,12.96872 0.185,0.0126 -0.13157,-0.94918 -0.7549,-2.29343 z m -83.70444,-26.95022 c 4.48264,-7.51172 11.86214,-17.786436 18.31705,-25.503425 4.71778,-5.640221 8.04393,-9.31408 15.64807,-17.283901 3.58564,-3.758072 6.55267,-6.923895 6.5934,-7.035163 0.0407,-0.111268 -1.48955,-2.930075 -3.40061,-6.264017 C 662.59179,41.347179 655.1442,27.643231 644.46101,7.1651982 l -5.64853,-10.8273568 -0.51845,1.3023566 c -0.28515,0.7162962 -1.84186,3.9217317 -3.45936,7.1231901 -4.12398,8.1624679 -7.71192,13.7586849 -12.76616,19.9117959 -9.46417,11.521826 -21.19569,13.478958 -83.91621,13.999462 l -20.99805,0.174259 -10.74823,10.870784 c -19.27385,19.493619 -19.73395,19.972202 -19.33518,20.111842 0.20759,0.07269 21.2729,6.617985 46.8118,14.5451 25.53891,7.927116 58.10251,18.044259 72.36355,22.482529 14.26104,4.43828 26.00379,8.07716 26.095,8.08639 0.0912,0.009 0.84858,-1.12728 1.68303,-2.52561 z M 44.171721,97.342366 c 2.738804,-3.576831 3.130457,-4.084955 4.388702,-5.693816 1.310999,-1.676315 6.849694,-8.830267 8.278458,-10.692716 0.363802,-0.47423 1.945505,-2.512002 3.514896,-4.528382 1.569392,-2.01638 3.295798,-4.245699 3.836459,-4.954042 0.540661,-0.708343 1.340207,-1.735261 1.77677,-2.282039 1.564056,-1.958923 4.266852,-5.424861 6.173824,-7.917019 2.35732,-3.080702 3.883969,-5.062213 4.938676,-6.410142 0.436563,-0.557932 1.686719,-2.176674 2.778125,-3.597205 1.091406,-1.42053 2.05223,-2.642314 2.135165,-2.715074 0.08293,-0.07276 0.678246,-0.832958 1.322916,-1.689327 1.192134,-1.58361 1.635755,-2.161238 3.60282,-4.691139 0.609277,-0.783608 1.894208,-2.436774 2.855403,-3.673701 0.961195,-1.236927 1.901167,-2.435269 2.088827,-2.662981 0.18766,-0.227713 0.86726,-1.106972 1.510222,-1.95391 1.646702,-2.169107 2.308347,-3.02653 3.795407,-4.918446 l 1.303467,-1.658341 -0.679269,-0.554724 c -0.373598,-0.305098 -4.388312,-3.70988 -8.921588,-7.566182 -4.533276,-3.856302 -8.326509,-7.036818 -8.429407,-7.067813 -0.102898,-0.031 -2.975902,4.433849 -6.384452,9.921875 C 70.648591,27.525269 62.300695,40.94516 55.506262,51.859222 48.711828,62.773285 41.003146,75.196051 38.375858,79.46537 l -4.776888,7.762396 2.855361,4.433189 c 1.570449,2.438253 3.431186,5.336336 4.134971,6.440184 0.703786,1.103848 1.358647,1.958151 1.455247,1.898447 0.0966,-0.0597 1.053827,-1.255451 2.127172,-2.65722 z M 405.55972,91.14831 c 0,-0.216862 -1.10257,-0.571579 -1.26665,-0.407503 -0.0545,0.05452 0.0379,0.355146 0.20534,0.668047 0.24398,0.455884 0.37965,0.506515 0.68289,0.254847 0.20813,-0.172735 0.37842,-0.404661 0.37842,-0.515391 z M 252.1757,66.607658 c 0.48412,-0.534941 12.57939,-19.207928 12.50579,-19.306746 -0.1334,-0.179088 -15.5586,-4.85451 -15.66501,-4.748105 -0.0697,0.06969 -0.0409,6.018745 0.064,13.220128 l 0.19069,13.093424 1.22981,-0.88353 c 0.67639,-0.485941 1.43002,-1.104768 1.67473,-1.375171 z M 204.54472,43.891385 204.39542,28.515214 184.2594,22.261697 c -11.0748,-3.439434 -20.34346,-6.253517 -20.59701,-6.253517 -0.25356,0 -0.46101,0.09661 -0.46101,0.214693 0,0.118081 -0.21066,0.445503 -0.46814,0.727604 -1.00067,1.096375 -2.99661,3.874833 -2.91994,4.064728 0.0444,0.110056 6.51017,5.678132 14.36829,12.373502 7.85813,6.69537 17.91649,15.27939 22.35191,19.075601 4.43543,3.796211 8.08604,6.879938 8.11247,6.852725 0.0264,-0.02721 -0.0191,-6.968754 -0.10125,-15.425648 z m 242.15771,3.228663 7.40834,-7.649591 -9.525,0.178039 c -19.04769,0.356035 -49.07791,1.603348 -48.02188,1.994601 1.65528,0.613269 42.25935,13.208326 42.46563,13.172497 0.14552,-0.02528 3.59833,-3.488271 7.67291,-7.695546 z m -417.4937,-37.074 c 9.069723,-14.5570378 16.564806,-26.661226 16.655741,-26.898197 0.121367,-0.316278 -0.63139,-1.11283 -2.830649,-2.995336 -1.647791,-1.410464 -3.234109,-2.673863 -3.52515,-2.807552 -0.785753,-0.360934 -115.335812,-35.927712 -115.425064,-35.83846 -0.04203,0.04203 2.277507,2.684212 5.154529,5.871514 28.536998,31.61465 51.37779,60.4253927 74.3953992,93.840293 L 6.8744865,45.923231 9.7964059,41.21831 C 11.403462,38.630603 20.139008,24.603085 29.20873,10.046048 Z m 286.81276,1.1845 1.64761,-1.073464 -1.60164,-3.8874732 c -4.26208,-10.3448 -4.09098,-9.9776569 -4.60702,-9.8858135 -0.2691,0.047892 -2.87051,0.7337201 -5.78093,1.5240628 -4.7628,1.29337014 -8.62264,2.74745463 -8.58482,3.2340865 0.0125,0.160896 16.87939,11.1160014 17.16533,11.1489494 0.0626,0.0072 0.85528,-0.469942 1.76147,-1.060348 z M 290.91533,6.6816173 c 0.57069,-0.9095052 1.2686,-2.0062285 1.5509,-2.4371629 0.32642,-0.4982696 0.37696,-0.699478 0.13884,-0.5526788 -0.20595,0.126961 -1.72084,1.0307209 -3.36642,2.0083554 l -2.99197,1.7775173 1.38204,0.4074643 c 2.0973,0.6183438 2.1572,0.5964104 3.28661,-1.2034953 z m 77.9996,-7.59280722 C 394.53174,-3.4419964 421.96087,-4.5828498 472.05589,-5.2011076 l 26.41178,-0.3259664 10.51259,-10.862061 c 9.91425,-10.243831 18.0975,-18.8182 20.65657,-21.643832 l 1.13821,-1.256771 -1.15818,0.0045 c -0.637,0.0025 -22.17271,1.073168 -47.85713,2.379344 l -46.69896,2.374867 -6.74688,1.598036 c -20.16799,4.776905 -36.55238,8.754197 -53.76233,13.050742 l -19.23421,4.80191 3.09167,7.4950451 3.09166,7.49504528 1.06129,-0.14906463 c 0.58371,-0.0819855 3.44254,-0.3843197 6.35296,-0.67185367 z M 569.73369,-6.3536101 c 5.94348,-0.16652 11.97942,-0.5011622 17.428,-0.9662367 l 3.66967,-0.313232 1.20804,-1.8715584 c 4.19265,-6.4954858 8.89148,-18.0250068 12.46234,-30.5788508 1.77602,-6.243852 4.52257,-16.966191 4.52257,-17.655811 0,-0.631627 -0.83005,-2.218004 -1.10925,-2.119975 -0.10077,0.03538 -2.04489,2.326515 -4.32027,5.091411 -11.11756,13.509321 -22.21452,26.200063 -35.71319,40.842435 -2.47385,2.683457 -5.13877,5.5815979 -5.92204,6.4403124 l -1.42412,1.561299 1.95329,-0.1407678 c 1.07431,-0.077422 4.33454,-0.2074838 7.24496,-0.2890257 z m -365.96055,-20.6071829 -0.17669,-8.658716 -0.56056,0.612282 c -0.3083,0.336754 -0.91331,1.088531 -1.34446,1.670614 -0.43115,0.582084 -0.85244,1.117865 -0.9362,1.190625 -0.0838,0.07276 -0.67976,0.832958 -1.32443,1.689327 -0.64467,0.856369 -1.46978,1.941641 -1.83358,2.411715 -0.3638,0.470074 -1.18892,1.555346 -1.83359,2.411715 -0.64467,0.85637 -1.24627,1.616566 -1.3369,1.689327 -0.40048,0.321529 -1.65433,2.142539 -1.54827,2.248602 0.1505,0.150503 10.91391,3.524614 11.00392,3.449508 0.0371,-0.03096 -0.0121,-3.952705 -0.10924,-8.714999 z m 45.99233,2.382663 c 0.78876,-0.348824 2.38115,-1.313728 3.53865,-2.144231 3.02238,-2.168539 6.92053,-3.991871 10.33675,-4.834938 2.67652,-0.660524 3.23598,-0.923183 7.90739,-3.712414 8.16387,-4.874525 11.70215,-6.459063 19.31459,-8.649588 2.77576,-0.798742 3.94533,-1.248848 3.89084,-1.49738 -0.24923,-1.136837 -9.1895,-21.848389 -13.23032,-30.650141 -3.94759,-8.598692 -17.36003,-36.709578 -17.6566,-37.006138 -0.15233,-0.15234 -0.7507,0.48513 -1.82952,1.94906 -0.42887,0.58197 -0.85188,1.11765 -0.94003,1.19041 -0.0881,0.0728 -0.51048,0.60854 -0.93852,1.19063 -0.42805,0.58208 -0.84476,1.11786 -0.92605,1.19062 -0.0813,0.0728 -0.49799,0.60854 -0.92604,1.19063 -0.42804,0.58208 -0.84679,1.11786 -0.93055,1.19062 -0.0838,0.0728 -0.67143,0.84667 -1.30592,1.71979 -0.6345,0.87313 -1.22217,1.64703 -1.30593,1.71979 -0.0838,0.0728 -0.50251,0.60855 -0.93055,1.19063 -0.42804,0.582083 -0.84476,1.117864 -0.92604,1.190624 -0.0813,0.07276 -0.498,0.608542 -0.92604,1.190625 -0.42805,0.582084 -0.85038,1.117865 -0.93853,1.190625 -0.0881,0.07276 -0.51048,0.608542 -0.93852,1.190625 -0.42804,0.582084 -0.84476,1.117865 -0.92604,1.190625 -0.0813,0.07276 -0.48721,0.584239 -0.90206,1.136618 l -0.75428,1.004325 0.30969,29.025884 c 0.17033,15.964235 0.30769,31.377367 0.30524,34.251404 -0.002,2.874036 0.0403,5.225521 0.0949,5.225521 0.0547,0 0.74471,-0.285402 1.53346,-0.634226 z M 148.92785,-37.768384 c 0.79234,-1.055026 1.50658,-1.97776 1.58721,-2.05052 0.0806,-0.07276 0.4968,-0.608542 0.92485,-1.190625 0.42804,-0.582084 0.84679,-1.117865 0.93055,-1.190626 0.0838,-0.07276 0.64247,-0.787135 1.24157,-1.5875 1.06045,-1.416687 4.25838,-5.55369 4.9086,-6.35 0.17823,-0.218281 0.67856,-0.873125 1.11184,-1.455208 0.43328,-0.582083 0.85428,-1.117865 0.93556,-1.190625 0.0813,-0.07276 0.49868,-0.606193 0.92755,-1.185405 0.42887,-0.579213 0.97979,-1.293588 1.22426,-1.587501 0.24448,-0.293912 1.58965,-2.022667 2.98928,-3.841678 1.39963,-1.81901 2.6899,-3.485885 2.86726,-3.704166 0.17737,-0.218282 0.67698,-0.873125 1.11026,-1.455209 0.43328,-0.582083 0.85428,-1.117864 0.93556,-1.190625 0.0813,-0.07276 0.49868,-0.606193 0.92755,-1.185405 0.42887,-0.579213 0.97978,-1.293588 1.22426,-1.5875 0.24447,-0.293913 1.58965,-2.022668 2.98928,-3.841678 1.39963,-1.819011 2.6899,-3.485886 2.86726,-3.704167 0.17736,-0.218281 0.67698,-0.873125 1.11025,-1.455208 0.43328,-0.582084 0.85428,-1.117865 0.93557,-1.190625 0.0813,-0.07276 0.498,-0.608542 0.92604,-1.190625 0.42804,-0.582084 0.84457,-1.117865 0.92563,-1.190625 0.0811,-0.07276 1.09377,-1.382448 2.25046,-2.910417 1.1567,-1.527969 2.16892,-2.837656 2.24937,-2.910417 0.0804,-0.07276 0.4965,-0.608541 0.92454,-1.190625 0.42804,-0.582083 0.84476,-1.117864 0.92604,-1.190625 0.0813,-0.07276 0.498,-0.608542 0.92604,-1.190625 0.42804,-0.582083 0.84476,-1.117864 0.92604,-1.190625 0.0813,-0.07276 0.498,-0.608542 0.92604,-1.190625 0.42805,-0.582083 0.84458,-1.117865 0.92564,-1.190625 0.0811,-0.07276 1.09376,-1.382448 2.25046,-2.910417 1.1567,-1.527968 2.16891,-2.837656 2.24937,-2.910416 0.0804,-0.07276 0.49649,-0.608538 0.92453,-1.190628 0.42805,-0.58208 0.84476,-1.11786 0.92605,-1.19062 0.0813,-0.0728 0.498,-0.60854 0.92604,-1.19063 0.42804,-0.58208 0.83846,-1.11786 0.91205,-1.19062 0.0736,-0.0728 0.59455,-0.70553 1.1577,-1.40614 l 1.02389,-1.27385 -0.4258,-41.58866 c -0.23419,-22.87375 -0.50323,-46.62677 -0.59786,-52.78447 l -0.17206,-11.19583 -2.82734,6.96249 c -13.08175,32.21459 -27.90825,61.80508 -46.17651,92.15833 -2.80264,4.65667 -11.85507,20.551513 -20.1165,35.321878 -8.26144,14.770365 -15.72766,28.102048 -16.5916,29.625962 -1.13317,1.998806 -1.47251,2.808136 -1.21797,2.904929 1.18701,0.451381 31.91421,10.016947 32.24942,10.039439 0.22613,0.01517 1.05943,-0.835616 1.85177,-1.890642 z M 351.6698,-59.786793 c 21.41045,-5.428615 52.99104,-13.082264 70.82326,-17.164223 l 7.54062,-1.72612 70.76423,-3.523489 70.76422,-3.523489 3.99359,-5.027083 c 2.19648,-2.764896 4.75278,-6.011466 5.68067,-7.214599 l 1.68707,-2.187514 -5.44217,-8.13124 c -11.27644,-16.84833 -18.70051,-26.87104 -29.02752,-39.188 -9.64659,-11.50542 -11.61887,-13.89755 -14.42382,-17.49427 -11.70109,-15.00405 -24.31897,-34.82208 -42.5353,-66.8073 -10.52121,-18.47369 -22.339,-40.02236 -23.35101,-42.57843 -2.49492,-6.30153 -2.95211,-12.82201 -1.56433,-22.31063 l 0.47404,-3.24115 h 22.16985 22.16986 l -0.0158,2.05052 c -0.009,1.12779 -0.23226,3.53881 -0.49678,5.35782 l -0.48095,3.30729 1.86561,3.43958 c 10.86584,20.03311 26.36419,47.11988 35.19766,61.51563 12.2398,19.94698 18.10724,28.11172 32.32347,44.97917 10.68017,12.67194 17.66215,21.69795 26.04374,33.66823 2.21619,3.16507 4.07858,5.75468 4.13864,5.75468 0.0601,0 0.72164,-1.22039 1.47016,-2.71198 3.59767,-7.16911 7.03061,-15.91359 9.32242,-23.74635 2.5648,-8.76575 4.18149,-16.03234 7.97623,-35.85104 5.58613,-29.17452 9.17145,-43.31605 15.52907,-61.25105 2.99853,-8.45892 5.43248,-14.77821 13.04414,-33.86666 11.2919,-28.31771 15.15415,-39.20831 18.54746,-52.29934 3.18503,-12.28751 4.53317,-22.39366 4.26478,-31.97046 -0.29115,-10.38906 -2.13545,-17.96485 -6.58122,-27.0336 -3.05343,-6.22855 -7.12912,-11.84606 -9.36425,-12.9067 -0.52601,-0.24961 -3.00057,-0.97535 -5.49901,-1.61276 -23.26211,-5.93471 -77.60444,-15.08184 -128.7534,-21.67232 -8.4221,-1.08517 -8.65276,-1.09749 -8.86137,-0.47306 -0.0851,0.25467 -0.53958,0.89743 -1.01002,1.42837 -0.47043,0.53093 -1.08603,1.28261 -1.368,1.6704 -0.28197,0.38779 -0.69868,0.92598 -0.92604,1.19599 -0.22736,0.27001 -0.64407,0.80579 -0.92604,1.19063 -0.28197,0.38483 -0.69869,0.91917 -0.92604,1.18742 -0.22736,0.26826 -0.59197,0.75353 -0.81025,1.07839 -0.45563,0.67808 -1.56019,2.07248 -2.04885,2.58645 -0.18282,0.1923 -0.33517,0.43042 -0.33854,0.52917 -0.003,0.0987 -0.4201,0.63917 -0.92604,1.20094 -0.50595,0.56177 -0.92267,1.09755 -0.92605,1.19063 -0.003,0.0931 -0.39033,0.60362 -0.85989,1.13456 -0.46957,0.53094 -1.08446,1.28262 -1.36643,1.6704 -0.28196,0.38779 -0.69868,0.92598 -0.92604,1.19599 -0.22735,0.27001 -0.64407,0.80579 -0.92604,1.19063 -0.28197,0.38483 -0.69868,0.91918 -0.92604,1.18743 -0.22736,0.26825 -0.59197,0.75352 -0.81025,1.07838 -0.45562,0.67808 -1.56019,2.07248 -2.04884,2.58646 -0.18283,0.19229 -0.33517,0.43042 -0.33855,0.52916 -0.003,0.0987 -0.42009,0.63917 -0.92604,1.20094 -0.50595,0.56178 -0.92267,1.09756 -0.92604,1.19063 -0.003,0.0931 -0.39033,0.60363 -0.8599,1.13456 -0.46956,0.53094 -1.08446,1.28262 -1.36642,1.67041 -0.28197,0.38778 -0.69869,0.92598 -0.92604,1.19599 -0.22736,0.27001 -0.64408,0.80579 -0.92605,1.19062 -0.28196,0.38484 -0.69868,0.91918 -0.92604,1.18743 -0.22735,0.26825 -0.59197,0.75352 -0.81025,1.07838 -0.45562,0.67808 -1.56018,2.07248 -2.04884,2.58646 -0.18282,0.1923 -0.33517,0.43042 -0.33855,0.52917 -0.003,0.0987 -0.42009,0.63917 -0.92604,1.20094 -0.50594,0.56177 -0.92266,1.09755 -0.92604,1.19062 -0.003,0.0931 -0.39033,0.60363 -0.8599,1.13457 -0.46956,0.53093 -1.08445,1.28261 -1.36642,1.6704 -0.28197,0.38779 -0.72624,0.96541 -0.98728,1.28362 -0.58314,0.71084 -0.6853,0.84372 -1.66546,2.16629 -0.43129,0.58195 -0.93731,1.21543 -1.12448,1.40772 -0.18718,0.1923 -0.34308,0.43042 -0.34646,0.52917 -0.003,0.0988 -0.42009,0.63917 -0.92604,1.20094 -0.50595,0.56177 -0.92267,1.09755 -0.92604,1.19063 -0.003,0.0931 -0.39033,0.60362 -0.8599,1.13456 -0.46957,0.53094 -1.08446,1.28262 -1.36642,1.6704 -0.28197,0.38779 -0.69869,0.92599 -0.92604,1.19599 -0.22736,0.27001 -0.64408,0.80579 -0.92605,1.19063 -0.28196,0.38483 -0.72624,0.96005 -0.98728,1.27825 -0.58314,0.71085 -0.6853,0.84372 -1.66546,2.16629 -0.43129,0.58196 -0.9373,1.21543 -1.12448,1.40773 -0.18717,0.19229 -0.34308,0.43042 -0.34646,0.52916 -0.003,0.0987 -0.42009,0.63917 -0.92604,1.20095 -0.50594,0.56177 -0.92266,1.09755 -0.92604,1.19062 -0.003,0.0931 -0.39033,0.60363 -0.8599,1.13456 -0.46956,0.53094 -1.08445,1.28262 -1.36642,1.67041 -0.28197,0.38778 -0.69869,0.92598 -0.92604,1.19599 -0.22736,0.27001 -0.64408,0.80579 -0.92604,1.19062 -0.28197,0.38484 -0.72625,0.96005 -0.98729,1.27826 -0.58313,0.71084 -0.68529,0.84372 -1.66546,2.16629 -0.43128,0.58195 -0.9373,1.21543 -1.12447,1.40772 -0.18718,0.1923 -0.34309,0.43042 -0.34646,0.52917 -0.003,0.0987 -0.4201,0.63917 -0.92605,1.20094 -0.50594,0.56177 -0.92266,1.09755 -0.92604,1.19062 -0.003,0.0931 -0.39033,0.60363 -0.85989,1.13457 -0.46957,0.53093 -1.08446,1.28262 -1.36643,1.6704 -0.28196,0.38779 -0.72624,0.96542 -0.98728,1.28362 -0.59385,0.72389 -0.70293,0.86616 -1.66106,2.16629 -0.42887,0.58195 -0.84627,1.11763 -0.92755,1.19039 -0.0813,0.0728 -0.49998,0.60854 -0.93044,1.19062 -0.43046,0.58209 -0.9358,1.21567 -1.12297,1.40797 -0.18718,0.19229 -0.34308,0.43042 -0.34646,0.52916 -0.003,0.0987 -0.4201,0.63917 -0.92604,1.20094 -0.50595,0.56177 -0.92267,1.09756 -0.92604,1.19063 -0.003,0.0931 -0.39033,0.60362 -0.8599,1.13456 -0.46957,0.53094 -1.08446,1.28262 -1.36642,1.6704 -0.28197,0.38779 -0.72625,0.96542 -0.98729,1.28362 -0.59384,0.7239 -0.70293,0.86616 -1.66106,2.1663 -0.42887,0.58195 -0.84627,1.11762 -0.92755,1.19038 -0.0813,0.0728 -0.49998,0.60854 -0.93043,1.19063 -0.43046,0.58208 -0.9358,1.21566 -1.12298,1.40796 -0.18717,0.19229 -0.34308,0.43042 -0.34646,0.52917 -0.003,0.0987 -0.39033,0.61394 -0.85989,1.14487 -0.46957,0.53094 -1.08446,1.28262 -1.36643,1.67041 -0.28196,0.38778 -0.69868,0.92598 -0.92604,1.19599 -0.22735,0.27001 -0.64407,0.80579 -0.92604,1.19062 -0.28197,0.38484 -0.72624,0.96005 -0.98728,1.27826 -0.59385,0.72389 -0.70293,0.86615 -1.66107,2.16629 -0.42887,0.58195 -0.84626,1.11763 -0.92754,1.19039 -0.0813,0.0728 -0.49998,0.60854 -0.93044,1.19062 -0.43046,0.58208 -0.9358,1.21567 -1.12298,1.40796 -0.18717,0.1923 -0.34308,0.43042 -0.34645,0.52917 -0.003,0.0987 -0.39033,0.61394 -0.8599,1.14488 -0.46957,0.53093 -1.08446,1.28262 -1.36642,1.6704 -0.28197,0.38779 -0.69869,0.92598 -0.92605,1.19599 -0.22735,0.27001 -0.64407,0.80579 -0.92604,1.19063 -0.28196,0.38483 -0.72624,0.96005 -0.98728,1.27825 -0.58314,0.71084 -0.6853,0.84372 -1.66546,2.16629 -0.43129,0.58195 -0.9373,1.21543 -1.12448,1.40773 -0.18718,0.19229 -0.34308,0.43042 -0.34646,0.52916 -0.003,0.0988 -0.42009,0.63917 -0.92604,1.20094 -0.50595,0.56178 -0.92266,1.09756 -0.92604,1.19063 -0.003,0.0931 -0.39033,0.60362 -0.8599,1.13456 -0.46956,0.53094 -1.08445,1.28262 -1.36642,1.67041 -0.28197,0.38778 -0.72625,0.96541 -0.98728,1.28361 -0.59385,0.7239 -0.70293,0.86616 -1.66107,2.1663 -0.42887,0.58195 -0.84626,1.11762 -0.92754,1.19038 -0.0813,0.0728 -0.49998,0.60854 -0.93044,1.19063 -0.43046,0.58208 -0.9358,1.21566 -1.12298,1.40796 -0.18717,0.19229 -0.34308,0.43042 -0.34646,0.52917 -0.003,0.0987 -0.39032,0.61394 -0.85989,1.14487 -0.46957,0.53094 -1.08446,1.28262 -1.36642,1.67041 -0.28197,0.38778 -0.69869,0.92598 -0.92605,1.19599 -0.22735,0.27001 -0.64407,0.80579 -0.92604,1.19062 -0.28196,0.38484 -0.72624,0.96005 -0.98728,1.27826 -0.59385,0.72389 -0.70293,0.86616 -1.66106,2.16629 -0.42887,0.58195 -0.84627,1.11763 -0.92755,1.19039 -0.0813,0.0728 -0.49998,0.60854 -0.93044,1.19062 -0.43046,0.58209 -0.9358,1.21567 -1.12297,1.40796 -0.18718,0.1923 -0.34309,0.43042 -0.34646,0.52917 -0.003,0.0988 -0.39033,0.61394 -0.8599,1.14488 -0.46956,0.53093 -1.08445,1.28262 -1.36642,1.6704 -0.28197,0.38779 -0.69869,0.92598 -0.92604,1.19599 -0.22736,0.27001 -0.64408,0.80579 -0.92604,1.19063 -0.28197,0.38483 -0.72625,0.96005 -0.98729,1.27825 -0.59384,0.7239 -0.70293,0.86616 -1.66106,2.16629 -0.42887,0.58196 -0.84627,1.11763 -0.92755,1.19039 -0.0813,0.0728 -0.49998,0.60854 -0.93044,1.19063 -0.43046,0.58208 -0.93579,1.21566 -1.12297,1.40796 -0.18718,0.19229 -0.34308,0.43042 -0.34646,0.52916 -0.003,0.0987 -0.39033,0.61394 -0.85989,1.14488 -0.46957,0.53094 -1.08446,1.28262 -1.36643,1.67041 -0.28197,0.38778 -0.69868,0.92598 -0.92604,1.19599 -0.22736,0.27001 -0.64408,0.80579 -0.92604,1.19062 -0.28197,0.38484 -0.72625,0.96005 -0.98728,1.27825 -0.59385,0.7239 -0.70294,0.86616 -1.66107,2.1663 -0.42887,0.58195 -0.84626,1.11762 -0.92755,1.19038 -0.0813,0.0728 -0.49997,0.60855 -0.93043,1.19063 -0.43046,0.58208 -0.9358,1.21566 -1.12298,1.40796 -0.18717,0.1923 -0.34308,0.43042 -0.34646,0.52917 -0.003,0.0987 -0.39033,0.61394 -0.85989,1.14488 -0.46957,0.53093 -1.08446,1.28261 -1.36643,1.6704 -0.28196,0.38779 -0.72624,0.96541 -0.98728,1.28362 -0.59384,0.72389 -0.70293,0.86616 -1.66106,2.16629 -0.42887,0.58195 -0.84627,1.11763 -0.92755,1.19039 -0.0813,0.0728 -0.498,0.60854 -0.92604,1.19062 -0.42804,0.58209 -0.84476,1.11787 -0.92604,1.19063 -0.0813,0.0728 -0.49998,0.60854 -0.93044,1.19062 -0.43046,0.58209 -0.90603,1.19397 -1.05683,1.35975 -0.15079,0.16577 -0.50487,0.6198 -0.78684,1.00894 -0.28197,0.38915 -0.69868,0.92845 -0.92604,1.19846 -0.22736,0.27001 -0.64408,0.80579 -0.92604,1.19063 -0.28197,0.38483 -0.72625,0.96005 -0.98729,1.27825 -0.59384,0.7239 -0.70293,0.86616 -1.66106,2.16629 -0.42887,0.58196 -0.84626,1.11763 -0.92755,1.19039 -0.0813,0.0728 -0.498,0.60854 -0.92604,1.19063 -0.42804,0.58208 -0.84476,1.11786 -0.92604,1.19062 -0.0813,0.0728 -0.5007,0.60854 -0.93205,1.19063 -0.83488,1.12664 -0.94134,1.26378 -1.68152,2.16605 -0.26104,0.3182 -0.70532,0.89342 -0.98729,1.27825 -0.28196,0.38484 -0.69868,0.92062 -0.92604,1.19063 -0.22735,0.27001 -0.64407,0.80931 -0.92604,1.19846 -0.28197,0.38914 -0.63173,0.84317 -0.77725,1.00895 -0.14552,0.16577 -0.61548,0.77766 -1.04435,1.35974 -0.42887,0.58208 -0.84626,1.11786 -0.92754,1.19062 -0.0813,0.0728 -0.498,0.60855 -0.92604,1.19063 -0.42805,0.58208 -0.84477,1.11786 -0.92605,1.19062 -0.0813,0.0728 -0.5007,0.60855 -0.93204,1.19063 -0.83489,1.12665 -0.94135,1.26378 -1.68153,2.16605 -0.26104,0.31821 -0.70532,0.89695 -0.98728,1.28609 -0.28197,0.38915 -0.63173,0.84317 -0.77725,1.00895 -0.14552,0.16577 -0.61548,0.77766 -1.04435,1.35974 -0.42887,0.58209 -0.84627,1.11787 -0.92755,1.19063 -0.0813,0.0728 -0.498,0.60854 -0.92604,1.19062 -0.42804,0.58209 -0.84476,1.11787 -0.92604,1.19063 -0.0813,0.0728 -0.498,0.60854 -0.92604,1.19062 -0.42804,0.58209 -0.84476,1.11787 -0.92604,1.19063 -0.0813,0.0728 -0.49998,0.60854 -0.93044,1.19062 -0.43046,0.58209 -0.90603,1.19397 -1.05683,1.35975 -0.15079,0.16577 -0.50487,0.6198 -0.78684,1.00894 -0.28197,0.38915 -0.72624,0.96789 -0.98728,1.28609 -0.59385,0.7239 -0.70293,0.86616 -1.66107,2.16629 -0.42887,0.58196 -0.84626,1.11763 -0.92754,1.19039 -0.0813,0.0728 -0.498,0.60854 -0.92605,1.19063 -0.42804,0.58208 -0.84476,1.11786 -0.92604,1.19062 -0.0813,0.0728 -0.498,0.60854 -0.92604,1.19063 -0.42804,0.58208 -0.85038,1.11786 -0.93852,1.19062 -0.0881,0.0728 -0.51116,0.60844 -0.94003,1.19039 -0.95813,1.30013 -1.06722,1.4424 -1.66106,2.16629 -0.26104,0.31821 -0.70532,0.89695 -0.98729,1.28609 -0.28196,0.38914 -0.63173,0.84317 -0.77725,1.00895 -0.14552,0.16577 -0.61547,0.77766 -1.04434,1.35974 -0.42887,0.58208 -0.84627,1.11787 -0.92755,1.19063 -0.0813,0.0728 -0.498,0.60854 -0.92604,1.19062 -0.42804,0.58208 -0.84476,1.11787 -0.92604,1.19063 -0.0813,0.0728 -0.498,0.60854 -0.92605,1.19062 -0.42804,0.58208 -0.85037,1.11787 -0.93852,1.19063 -0.0881,0.0728 -0.51116,0.60843 -0.94003,1.19038 -0.95813,1.30014 -1.06721,1.4424 -1.66106,2.16629 -0.26104,0.31821 -0.70532,0.89695 -0.98728,1.28609 -0.28197,0.38915 -0.63173,0.84317 -0.77725,1.00895 -0.14552,0.16578 -0.61548,0.77766 -1.04435,1.35974 -0.42887,0.58209 -0.84627,1.11787 -0.92755,1.19063 -0.0813,0.0728 -0.498,0.60854 -0.92604,1.19062 -0.42804,0.58209 -0.84476,1.11787 -0.92604,1.19063 -0.0813,0.0728 -0.498,0.60854 -0.92604,1.19062 -0.42804,0.58209 -0.85038,1.11787 -0.93853,1.19063 -0.0881,0.0728 -0.51115,0.60843 -0.94002,1.19039 -0.83058,1.12704 -1.15035,1.54566 -1.57352,2.05994 -0.14552,0.17685 -0.61547,0.79779 -1.04434,1.37988 -0.42887,0.58208 -0.84627,1.11786 -0.92755,1.19062 -0.0813,0.0728 -0.498,0.60854 -0.92604,1.19063 -0.42804,0.58208 -0.84476,1.11786 -0.92604,1.19062 -0.0813,0.0728 -0.498,0.60854 -0.92605,1.19063 -0.42804,0.58208 -0.85037,1.11786 -0.93852,1.19062 -0.0881,0.0728 -0.51048,0.60854 -0.93852,1.19063 -0.42804,0.58208 -0.84476,1.11786 -0.92604,1.19062 -0.0813,0.0728 -0.49868,0.60844 -0.92755,1.19039 -0.83057,1.12704 -1.15034,1.54566 -1.57351,2.05994 -0.14552,0.17685 -0.61548,0.7978 -1.04435,1.37988 -0.42887,0.58208 -0.84627,1.11787 -0.92755,1.19063 -0.0813,0.0728 -0.498,0.60854 -0.92604,1.19062 -0.42804,0.58208 -0.84476,1.11787 -0.92604,1.19063 -0.0813,0.0728 -0.498,0.60854 -0.92604,1.19062 -0.42804,0.58208 -0.85038,1.11787 -0.93853,1.19063 -0.0881,0.0728 -0.51048,0.60854 -0.93852,1.19062 -0.42804,0.58208 -0.84476,1.11787 -0.92604,1.19063 -0.0813,0.0728 -0.49868,0.60843 -0.92755,1.19038 -0.82488,1.11932 -1.1441,1.53743 -1.57351,2.06098 -0.99975,1.21892 -1.19014,0.67808 3.99117,11.3376 18.70361,38.47898 27.24578,57.04521 36.62457,79.602705 2.66854,6.41826 2.63846,6.35 2.79841,6.35 0.0812,0 6.00298,-1.484612 13.15947,-3.299138 z M 76.216521,-68.658488 c 2.831755,-5.020469 11.642781,-20.73672 19.580057,-34.925002 7.937272,-14.18828 15.497532,-27.52328 16.800572,-29.63333 39.93052,-64.66071 68.1233,-139.58721 80.89077,-214.97924 0.66488,-3.92616 1.26437,-7.39016 1.33218,-7.69778 0.12123,-0.54998 0.15972,-0.55337 2.3101,-0.20372 1.20274,0.19556 2.41403,0.35795 2.69173,0.36086 0.49271,0.005 0.50115,-0.35074 0.34889,-14.70502 -0.0858,-8.09067 -0.21607,-14.77036 -0.28946,-14.84374 -0.32736,-0.32736 -16.49072,1.66361 -25.30289,3.11677 -46.05369,7.5944 -70.01119,22.27019 -102.402314,62.72923 -10.200374,12.74106 -21.317421,28.06715 -38.927843,53.66638 -13.157806,19.12673 -13.270118,19.30934 -23.107325,37.57084 -14.9236765,27.70386 -22.381092,38.77519 -33.239166,49.34708 -5.360749,5.21946 -10.306741,8.82603 -21.927528,15.98934 -2.401094,1.48008 -4.365625,2.78777 -4.365625,2.90597 0,0.86904 62.255691,55.69318 102.074399,89.889629 l 8.941063,7.678617 4.684979,1.462255 c 2.576739,0.80424 4.701581,1.448019 4.721872,1.43062 0.02029,-0.0174 2.353783,-4.139291 5.185539,-9.159759 z M -43.967372,-95.207776 c 0,-0.05002 -2.470547,-2.280967 -5.490105,-4.957654 -12.0324,-10.66611 -35.6175,-31.86821 -41.120528,-36.96577 l -1.234589,-1.14362 -1.512155,0.76463 -1.512155,0.76463 -4.581537,11.45007 c -3.889529,9.72062 -4.513699,11.46912 -4.132419,11.57623 0.4811,0.13515 59.406376,18.523255 59.517342,18.572865 0.03638,0.01627 0.06615,-0.01136 0.06615,-0.06138 z M -158.71992,-157.99381 c 7.09693,-2.77648 13.79014,-5.5273 24.09364,-9.90216 4.29249,-1.82259 5.32015,-2.36082 5.62239,-2.94469 0.20342,-0.39296 0.3576,-0.92874 0.34262,-1.19063 -0.015,-0.26189 -2.36646,-2.67218 -5.22552,-5.35621 -38.40469,-36.05352 -82.81843,-80.94395 -118.00908,-119.27568 -3.10611,-3.38336 -5.6859,-6.15156 -5.73285,-6.15156 -0.36042,0 9.21036,20.28311 14.98153,31.75 21.03688,41.79871 43.21444,75.73536 72.56966,111.04791 2.20272,2.64974 4.03943,4.82263 4.08157,4.82865 0.0421,0.006 3.31636,-1.25652 7.27604,-2.80563 z m 432.5227,-40.83968 c 0.0851,-0.0728 0.50492,-0.60854 0.93296,-1.19063 0.42805,-0.58208 0.84476,-1.11786 0.92604,-1.19062 0.0813,-0.0728 0.498,-0.60854 0.92605,-1.19063 0.42804,-0.58208 0.84635,-1.11786 0.92958,-1.19062 0.0832,-0.0728 1.43107,-1.79917 2.99521,-3.83646 1.56414,-2.03729 2.98702,-3.88276 3.16194,-4.10104 0.17493,-0.21828 0.67255,-0.87313 1.10583,-1.45521 0.43328,-0.58208 0.85428,-1.11786 0.93556,-1.19062 0.0813,-0.0728 0.498,-0.60855 0.92604,-1.19063 0.42805,-0.58208 0.84359,-1.11786 0.92344,-1.19062 0.0799,-0.0728 1.06074,-1.32292 2.17975,-2.77813 1.11901,-1.45521 2.12951,-2.7649 2.24555,-2.91042 0.11605,-0.14552 0.56391,-0.74083 0.99526,-1.32291 0.43134,-0.58209 0.85076,-1.11787 0.93205,-1.19063 0.0813,-0.0728 0.49799,-0.60854 0.92604,-1.19062 0.42804,-0.58209 0.84476,-1.11787 0.92604,-1.19063 0.0813,-0.0728 0.498,-0.60854 0.92604,-1.19062 0.42804,-0.58209 0.84359,-1.11787 0.92344,-1.19063 0.0799,-0.0728 1.06074,-1.32292 2.17974,-2.77812 1.11901,-1.45521 2.12951,-2.7649 2.24556,-2.91042 0.11604,-0.14552 0.56391,-0.74083 0.99525,-1.32292 0.43135,-0.58208 0.85077,-1.11786 0.93205,-1.19062 0.0813,-0.0728 0.498,-0.60854 0.92604,-1.19063 0.42805,-0.58208 0.84445,-1.11786 0.92535,-1.19062 0.0809,-0.0728 1.47809,-1.8587 3.10486,-3.96875 1.62678,-2.11005 3.05314,-3.95552 3.16969,-4.10104 0.11655,-0.14552 0.56483,-0.74084 0.99618,-1.32292 0.43135,-0.58208 0.85077,-1.11787 0.93205,-1.19063 0.0813,-0.0728 0.498,-0.60854 0.92604,-1.19062 0.42804,-0.58208 0.84445,-1.11787 0.92535,-1.19063 0.0809,-0.0728 1.47809,-1.85869 3.10486,-3.96875 1.62678,-2.11005 3.05313,-3.95552 3.16969,-4.10104 0.11655,-0.14552 0.56483,-0.74083 0.99618,-1.32291 0.43134,-0.58209 0.85077,-1.11787 0.93205,-1.19063 0.0813,-0.0728 0.498,-0.60854 0.92604,-1.19062 0.42804,-0.58209 0.84359,-1.11787 0.92344,-1.19063 0.0798,-0.0728 1.06134,-1.32292 2.1811,-2.77812 1.11975,-1.45521 2.36478,-3.04906 2.76674,-3.54188 0.40195,-0.49282 0.83971,-1.08813 0.97279,-1.32292 0.13309,-0.23478 0.31797,-0.4864 0.41086,-0.55916 0.0929,-0.0728 0.51911,-0.60854 0.94715,-1.19063 0.42804,-0.58208 0.84445,-1.11786 0.92535,-1.19062 0.0809,-0.0728 1.47871,-1.8587 3.10625,-3.96875 1.62755,-2.11005 3.28844,-4.23968 3.69088,-4.7325 0.40244,-0.49283 0.84059,-1.08814 0.97368,-1.32292 0.13308,-0.23478 0.31797,-0.48641 0.41086,-0.55917 0.0929,-0.0728 0.51911,-0.60854 0.94715,-1.19062 0.42804,-0.58208 0.84445,-1.11787 0.92535,-1.19063 0.0809,-0.0728 1.47871,-1.85869 3.10625,-3.96875 1.62754,-2.11005 3.28844,-4.23967 3.69088,-4.7325 0.40244,-0.49282 0.84059,-1.08813 0.97368,-1.32291 0.13308,-0.23478 0.31797,-0.48641 0.41086,-0.55917 0.0929,-0.0728 0.5191,-0.60854 0.94715,-1.19062 0.42804,-0.58209 0.84444,-1.11787 0.92534,-1.19063 0.0809,-0.0728 1.47872,-1.8587 3.10626,-3.96875 1.62754,-2.11005 3.28843,-4.23968 3.69087,-4.7325 0.40244,-0.49282 0.8406,-1.08814 0.97368,-1.32292 0.13309,-0.23478 0.31797,-0.4864 0.41086,-0.55916 0.0929,-0.0728 0.51911,-0.60855 0.94715,-1.19063 0.42804,-0.58208 0.84359,-1.11786 0.92344,-1.19062 0.0799,-0.0728 1.06135,-1.32292 2.1811,-2.77813 1.11975,-1.45521 2.36479,-3.04905 2.76674,-3.54187 0.40195,-0.49283 0.84237,-1.08814 0.9787,-1.32292 0.13634,-0.23478 0.58227,-0.78406 0.99097,-1.22063 0.40869,-0.43656 0.74363,-0.87454 0.74431,-0.97328 6.7e-4,-0.0987 0.15409,-0.33688 0.34094,-0.52917 0.18685,-0.1923 1.67328,-2.07604 3.30319,-4.18609 1.62991,-2.11005 3.29273,-4.23967 3.69517,-4.7325 0.40244,-0.49282 0.84326,-1.08813 0.97959,-1.32291 0.13633,-0.23479 0.58227,-0.78407 0.99096,-1.22063 0.4087,-0.43656 0.74364,-0.87454 0.74431,-0.97329 6.8e-4,-0.0987 0.1541,-0.33687 0.34095,-0.52916 0.18685,-0.1923 1.67328,-2.07604 3.30319,-4.18609 1.6299,-2.11005 3.29273,-4.23968 3.69517,-4.7325 0.40244,-0.49282 0.84325,-1.08814 0.97959,-1.32292 0.13633,-0.23478 0.58226,-0.78406 0.99096,-1.22062 0.4087,-0.43657 0.74364,-0.87455 0.74431,-0.97329 6.7e-4,-0.0987 0.15341,-0.33687 0.33941,-0.52917 0.18601,-0.19229 1.25612,-1.54025 2.37803,-2.99546 1.12191,-1.45521 2.36871,-3.04905 2.77067,-3.54187 0.40195,-0.49283 0.84237,-1.08814 0.9787,-1.32292 0.13633,-0.23478 0.58227,-0.78406 0.99096,-1.22063 0.4087,-0.43656 0.74364,-0.87454 0.74431,-0.97328 6.8e-4,-0.0987 0.15437,-0.33688 0.34155,-0.52917 0.18717,-0.1923 0.69251,-0.82588 1.12297,-1.40796 0.43046,-0.58209 0.84799,-1.11787 0.92784,-1.19063 0.0798,-0.0728 1.06134,-1.32291 2.18109,-2.77812 1.11976,-1.45521 2.36479,-3.04906 2.76674,-3.54188 0.40196,-0.49282 0.84237,-1.08813 0.97871,-1.32291 0.13633,-0.23479 0.58226,-0.78407 0.99096,-1.22063 0.4087,-0.43656 0.74364,-0.87454 0.74431,-0.97329 6.7e-4,-0.0987 0.1541,-0.33687 0.34095,-0.52917 0.18684,-0.19229 1.67328,-2.07603 3.30318,-4.18608 1.62991,-2.11005 3.29274,-4.23968 3.69518,-4.7325 0.40244,-0.49282 0.84325,-1.08814 0.97958,-1.32292 0.13634,-0.23478 0.58227,-0.78406 0.99097,-1.22062 0.40869,-0.43657 0.74363,-0.87455 0.74431,-0.97329 6.7e-4,-0.0987 0.1541,-0.33687 0.34094,-0.52917 0.18685,-0.19229 1.67328,-2.07603 3.30319,-4.18609 1.62991,-2.11005 3.29273,-4.23967 3.69517,-4.7325 0.40244,-0.49282 0.84326,-1.08813 0.97959,-1.32291 0.13633,-0.23478 0.58227,-0.78406 0.99096,-1.22063 0.4087,-0.43656 0.74364,-0.87454 0.74431,-0.97329 6.8e-4,-0.0987 0.15341,-0.33687 0.33942,-0.52916 0.186,-0.1923 1.25611,-1.54026 2.37803,-2.99546 1.12191,-1.45521 2.36871,-3.04906 2.77066,-3.54188 0.40196,-0.49282 0.84237,-1.08813 0.9787,-1.32292 0.13634,-0.23478 0.58227,-0.78406 0.99097,-1.22062 0.40869,-0.43656 0.74363,-0.87454 0.74431,-0.97329 6.7e-4,-0.0987 0.15759,-0.33687 0.34871,-0.52917 0.19112,-0.19229 1.67649,-2.07603 3.30083,-4.18608 1.62434,-2.11005 3.28368,-4.23968 3.68741,-4.7325 0.40374,-0.49283 0.84561,-1.08814 0.98194,-1.32292 0.13633,-0.23478 0.58227,-0.78406 0.99096,-1.22062 0.4087,-0.43657 0.74364,-0.87455 0.74431,-0.97329 6.8e-4,-0.0987 0.1576,-0.33687 0.34872,-0.52917 0.19111,-0.19229 1.67649,-2.07603 3.30083,-4.18609 1.62434,-2.11005 3.28368,-4.23967 3.68741,-4.7325 0.40373,-0.49282 0.84561,-1.08813 0.98194,-1.32291 0.13633,-0.23478 0.58226,-0.78407 0.99096,-1.22063 0.4087,-0.43656 0.74364,-0.87454 0.74431,-0.97329 6.7e-4,-0.0987 0.15759,-0.33687 0.34871,-0.52916 0.19112,-0.1923 1.6765,-2.07604 3.30084,-4.18609 1.62434,-2.11005 3.28367,-4.23968 3.68741,-4.7325 0.40373,-0.49282 0.8456,-1.08813 0.98194,-1.32292 0.13633,-0.23478 0.58226,-0.78406 0.99096,-1.22062 0.4087,-0.43656 0.74363,-0.87454 0.74431,-0.97329 6.7e-4,-0.0987 0.19399,-0.37231 0.4296,-0.60791 0.2356,-0.23561 0.37626,-0.48048 0.31258,-0.54417 -0.15077,-0.15077 -10.01364,-1.01268 -19.39408,-1.69484 -32.84685,-2.38868 -56.60211,-2.42225 -68.6165,-0.097 -2.05139,0.39703 -2.2507,0.4944 -2.8425,1.38867 -1.79926,2.71886 -3.39412,8.00861 -6.59433,21.87174 -1.22163,5.29203 -2.81029,11.67723 -3.53035,14.18933 -1.41224,4.92695 -3.67103,11.31432 -4.00112,11.31432 -0.11191,0 -4.17783,-1.67664 -9.03538,-3.72586 -4.85755,-2.04923 -9.40232,-3.95441 -10.09948,-4.23373 l -1.26758,-0.50787 0.18517,11.1129 0.18517,11.1129 -2.09259,10e-4 c -2.2417,0.001 -21.16584,0.34895 -43.10302,0.79229 -22.80943,0.46097 -46.38185,1.1285 -52.22446,1.47891 l -2.74739,0.16478 0.16846,12.34139 c 0.0927,6.78777 0.2372,19.06843 0.32121,27.29036 0.084,8.22193 0.364,35.08623 0.62217,59.69845 l 0.4694,44.7495 4.50964,8.03488 c 5.3046,9.45126 10.7807,19.47289 15.6674,28.67238 1.93249,3.63802 4.04555,7.60545 4.69568,8.81651 l 1.18207,2.20193 0.82719,-1.1436 c 0.45495,-0.62897 0.8968,-1.20312 0.9819,-1.27588 z"
       id="path1" /></g></svg>
