<?xml version="1.0" encoding="utf-8"?>
<!-- Designed by Vexels.com - 2016 All Rights Reserved - https://vexels.com/terms-and-conditions/  -->

<svg version="1.1" id="Layer_1" xmlns="http://www.w3.org/2000/svg" xmlns:xlink="http://www.w3.org/1999/xlink" x="0px" y="0px"
	 width="1200px" height="1200px" viewBox="0 0 1200 1200" enable-background="new 0 0 1200 1200" xml:space="preserve">
<g>
	<path fill="#FFFFFF" d="M407.394,1018.07l-82.863-72.77l-72.243-68.229l-65.601-140.385l-70.771-66.875l-31.869-90.432
		l31.799-50.648l137.912-66.62l36.24-107.214l-36.315-31.839l-31.654-112.31l31.654-26.755l116.642-20.615l21.149,20.615
		l50.927,30.843l53.549-2.039l8.24-65.901l61.784-63.864l92.68,18.555l16.487,32.939l177.112,22.667l35.012,47.37
		c0,0,43.253,105.026,41.192,113.248c-2.057,8.258,39.13,47.383,39.13,47.383l35.018-28.828l32.952-32.962h26.766l30.895,32.962
		l22.66,230.667l-55.61,57.679l-30.895,158.581l-39.124,43.258l-30.895,94.73l-37.08,47.37l-20.587,137.988l-49.432,24.704
		c0,0-434.562-6.185-428.383-14.409C430.049,1108.675,407.394,1018.07,407.394,1018.07z"/>
	<g>
		<rect x="325.758" y="941.339" width="65.583" height="69.469"/>
		<rect x="258.936" y="875.819" width="65.595" height="69.48"/>
		<rect x="118.476" y="667.181" width="65.594" height="69.504"/>
		<rect x="946.305" y="326.172" width="65.583" height="69.48"/>
		<rect x="1014.442" y="253.982" width="65.595" height="69.48"/>
		<rect x="186.687" y="736.685" width="65.601" height="140.385"/>
		<rect x="50.321" y="529.391" width="65.595" height="140.42"/>
		<rect x="115.847" y="463.13" width="140.403" height="65.6"/>
		<rect x="253.62" y="118.149" width="140.409" height="65.565"/>
		<rect x="529.057" y="50" width="140.403" height="65.589"/>
		<polygon points="323.129,666.383 389.929,666.383 389.929,598.234 389.929,532.645 389.929,460.454 323.129,460.454 
			323.129,532.645 254.912,532.645 254.912,598.234 323.129,598.234 		"/>
		<rect x="253.759" y="323.057" width="66.805" height="139.053"/>
		<rect x="186.896" y="183.992" width="66.788" height="139.065"/>
		<polygon points="457.006,459.631 529.121,459.631 529.121,117.199 457.006,117.199 457.006,183.992 391.475,183.992 
			391.475,323.057 457.006,323.057 		"/>
		<polygon points="664.277,117.199 664.277,459.631 736.398,459.631 736.398,183.795 872.765,183.795 872.765,118.217 
			736.398,118.217 736.398,117.199 		"/>
		<rect x="872.904" y="186.749" width="72.122" height="342.445"/>
		<polygon points="1149.679,321.934 1081.536,321.934 1081.536,599.102 1013.516,599.102 1013.516,805.157 1081.664,805.157 
			1081.664,602.855 1149.679,602.855 		"/>
		<rect x="945.297" y="802.355" width="68.149" height="143.141"/>
		<polygon points="875.724,1093.016 460.84,1093.016 460.84,1012.244 395.239,1012.244 395.239,1148.598 412.334,1148.598 
			412.334,1150 923.419,1150 923.419,1148.795 943.867,1148.795 943.867,944.096 875.724,944.096 		"/>
	</g>
</g>
</svg>
